<?xml version="1.0" encoding="utf-8"?>
<!-- Generator: Adobe Illustrator 28.0.0, SVG Export Plug-In . SVG Version: 6.00 Build 0)  -->
<svg version="1.1" id="Camada_1" xmlns="http://www.w3.org/2000/svg" xmlns:xlink="http://www.w3.org/1999/xlink" x="0px" y="0px"
	 viewBox="0 0 1080 1080" style="enable-background:new 0 0 1080 1080;" xml:space="preserve">
<style type="text/css">
	.st0{fill:#F6F3E5;}
	.st1{fill:#E6DFCC;}
	.st2{fill:#57433D;}
	.st3{fill:#908276;}
	.st4{fill:#FFFFFF;}
</style>
<g>
	<g>
		<g>
			<g>
				<path class="st3" d="M721.2,571.3c3.5-171.5-203.1-256.4-323.2-135.3c-35,35.5-54.6,85.6-52.7,135.3c0,0-14.4,0-14.4,0
					c0.4-9.3,1.5-20.5,3.1-29.6c15.8-95.7,102.1-169.5,199.3-168.5c93.2-1.1,177.9,67.8,197.3,158.8c2.8,12.5,4.4,26.4,5,39.3
					C735.6,571.3,721.2,571.3,721.2,571.3L721.2,571.3z"/>
			</g>
			<g>
				<g>
					<path class="st3" d="M749.1,268.5c-55.9-1.3-151.6,115.6-190.2,157.2c-43,47.7-84,97.8-134,138.5
						c-17.6,13.5-37.5,27.2-60.6,28.7c0,0,0-14.4,0-14.4c9.5,0.4,19.2-2.6,28-6.5c28.4-13.4,52.4-34.9,75.3-56.5
						C537,449,595,371.4,664.4,304.8c22.8-20.8,52.5-48.3,84.7-50.7C749.1,254.1,749.1,268.5,749.1,268.5L749.1,268.5z"/>
				</g>
			</g>
			<circle class="st3" cx="698.9" cy="359.1" r="24.3"/>
		</g>
		<g>
			<g>
				<g>
					<path class="st3" d="M161.8,743c-3.5-1.7-6.5-4.2-8.9-7.5c-2.5-3.3-4-7.3-4.6-12h2.9v14.7c0,3.1-2.5,5.7-5.7,5.7h0
						c-3.1,0-5.7-2.5-5.7-5.7V722v-75.9l11.4-1.8v64.4c0,5.6,1.1,11,3.2,16.1c2.2,5.1,5.1,9.1,8.8,12.2c3.7,3.1,7.8,4.6,12.2,4.6
						c5.5,0,9.8-2.5,12.8-7.5c3-5,4.5-11.2,4.5-18.7c0-5.5-0.9-11.2-2.6-17c-1.7-5.8-4.4-10.6-8-14.4c-3.6-3.8-8-5.7-13.2-5.8
						c-3.3,0-6.5,0.9-9.5,2.7c-3.1,1.8-6.1,5-9.1,9.4l-0.1-3.1c3-4.7,6.7-8.6,11-11.6c4.3-3.1,9.2-4.6,14.6-4.6
						c5,0,9.6,1.4,13.8,4.2c4.2,2.8,7.6,6.7,10.1,11.9c2.5,5.2,3.7,11.1,3.7,17.7c0,7.8-1.5,14.8-4.5,21c-3,6.2-6.9,11.1-11.8,14.6
						c-4.8,3.5-9.9,5.3-15.1,5.3C168.7,745.5,165.3,744.7,161.8,743z"/>
					<path class="st3" d="M228.4,740.9c-5-3.1-8.9-7.3-11.8-12.6c-2.8-5.4-4.2-11.4-4.2-18c0-7.1,1.6-13.7,4.8-19.7
						c3.2-6,7.5-10.8,13-14.4c5.5-3.6,11.6-5.4,18.2-5.4c6.1,0,11.6,1.5,16.5,4.6c4.9,3.1,8.8,7.3,11.6,12.8
						c2.8,5.5,4.2,11.8,4.2,18.8c0,7.2-1.5,13.8-4.6,19.6c-3.1,5.9-7.3,10.5-12.6,13.8c-5.4,3.3-11.4,5-18,5
						C239.2,745.5,233.4,744,228.4,740.9z M264,736.9c2.9-1.9,5.1-4.5,6.6-7.8c1.6-3.3,2.3-7.1,2.3-11.2c0-6.1-1.6-12.3-4.8-18.7
						c-3.2-6.4-7.4-11.7-12.5-15.8c-5.2-4.2-10.5-6.3-15.9-6.3c-3.8,0-7.1,0.9-9.9,2.8c-2.9,1.9-5.1,4.5-6.7,7.7
						c-1.6,3.3-2.4,7-2.4,11.3c0,6.2,1.6,12.5,4.9,18.9c3.2,6.4,7.4,11.6,12.6,15.8c5.2,4.1,10.5,6.2,16.1,6.2
						C257.9,739.7,261.2,738.8,264,736.9z"/>
					<path class="st3" d="M303.4,740.9c-4.2-2.9-7.5-6.9-9.9-12c-2.4-5.1-3.6-10.8-3.6-17.2c-0.1-7.4,1.3-14.2,4.2-20.5
						c2.9-6.2,6.8-11.2,11.7-14.9s10.2-5.5,15.8-5.5c3.2,0,6.3,0.6,9.3,1.8c3,1.2,5.7,3.1,8.1,5.7c2.4,2.6,4.2,6.1,5.3,10.3
						l-2.1,1.6v-43.9l11.4-1.8v80.4l0,13.3c0,3.2-2.6,5.7-5.7,5.7l0,0c-3.2,0-5.7-2.6-5.7-5.7v-10.5v-20.6c0-5.7-1.1-11.1-3.3-16
						c-2.2-4.9-5.2-8.8-8.9-11.8c-3.7-2.9-7.7-4.4-12-4.4c-5.4,0-9.7,2.5-12.8,7.5s-4.6,11.2-4.6,18.6c0.1,5.6,1,11.3,2.7,17
						c1.7,5.7,4.4,10.4,8,14.3c3.6,3.9,7.9,5.8,13.1,5.8c3.2,0,6.3-0.9,9.4-2.7c3.1-1.8,6.1-4.9,9.1-9.4l0.6,2.7
						c-3.3,5.5-7.1,9.7-11.5,12.5c-4.4,2.8-9.1,4.2-13.9,4.2C312.4,745.2,307.6,743.8,303.4,740.9z"/>
					<path class="st3" d="M374.4,762.1c0.9-1,2.4-1.6,4.4-1.8c2.8-0.5,3.4-0.4,6.4-1.9c3-1.5,8-4.5,3.2-18.4l-24.1-67.5h12
						l24.6,70.3H400c3.7-10.9,6.7-21.6,9.1-32c2.4-10.5,4.3-21.4,5.7-32.9c0.1-1.8,0.7-3.1,1.8-4.1c1.1-0.9,2.5-1.4,4.2-1.4l10,0.1
						l-31,77c-3.2,8.3-6.9,14.3-11.1,18.2c-4.2,3.9-8.9,6.1-13.9,6.6l-1.3-7.7C373.1,764.7,373.4,763.2,374.4,762.1z"/>
				</g>
				<g>
					<path class="st3" d="M562.8,720.7c2.6-11.9,6-21.1,6-21.1c2.1-7.4,3.1-12.6,3-15.6c-0.2-3.1-1-4.6-2.7-4.6
						c-1.9,0-4.6,1.6-8,4.7c-3.4,3.2-7.7,8.5-13.1,16s-11.7,17.4-18.9,29.6l-5.5,20.5h-12.4l13.5-50.7c1.4-5.2,2.3-9.3,2.7-12.2
						c0.4-2.9,0.3-5-0.1-6.2c-0.4-1.2-1.1-1.8-2.1-1.8c-1.9,0-4.6,1.6-8,4.7c-3.4,3.2-7.7,8.5-13.1,16s-11.7,17.4-18.9,29.6
						l-5.5,20.5h-12.6l16.2-60.6c0.5-1.5,1.1-3.2,1.8-5c0.7-1.8,1.4-3.2,2-4.4l7,2.3c-11.5,3.6-21.3,7.8-29.4,12.7l-1.4-2.1l29.6-21
						c1.1-0.8,2.2-1.2,3.4-1.2c1.2,0,2.1,0.5,2.8,1.5c0.6,1,0.7,2.4,0.3,4l-8.3,30.9c-1.2,4.5-2.9,9.8-5.1,15.9l-1.2,0.3
						c10.3-16.9,19.4-29.9,27.2-39c7.8-9,14.7-13.6,20.6-13.6c3.5,0,5.8,2.1,7,6.3c1.2,4.2,0.5,11.4-2.3,21.7l-2.3,8.3
						c-1.2,4.7-2.9,10-5.1,15.8l-1.2,0.5c10.3-16.9,19.4-29.9,27.3-39c7.9-9,14.6-13.6,20.4-13.6c3.7,0,6.1,2.1,7.4,6.4
						c1.3,4.3,0.4,11.5-2.5,21.6c0,0-7,23.7-8.5,31.4c-1.5,7.3,0,8.6,2.1,9c1.8,0.4,5.9-3.8,8.7-7.4c8.7-11.2,29-46,33.7-48.9
						l1.4,2.3c0,0-14,21-26.3,40.1c-8.4,13.1-16.4,22-20.7,21.3C564.2,745.7,559,738.1,562.8,720.7z"/>
					<path class="st3" d="M605.3,746.9c-4.1-3.5-6.8-8.2-7.9-14.2c-1.1-6-0.7-12.5,1.2-19.7c1.9-7.5,5.3-14.4,10-20.8
						c4.7-6.4,10.3-11.6,16.7-15.5c6.4-3.9,12.9-5.8,19.5-5.8c6.3,0,11.5,1.8,15.4,5.4c3.9,3.6,6.4,8.4,7.4,14.5
						c1,6.1,0.6,12.7-1.4,20c-2,7.8-5.4,14.8-10,21.1c-4.6,6.3-10,11.2-16.2,14.9c-6.1,3.6-12.4,5.4-18.8,5.4
						C614.8,752.1,609.4,750.4,605.3,746.9z M640.9,742.5c3.5-2.4,6.5-5.6,9-9.5c2.5-3.9,4.4-8.1,5.6-12.5c1.7-6.3,2-12.9,0.9-19.7
						c-1.1-6.8-3.5-12.4-7.2-16.9c-3.7-4.5-8.2-6.7-13.5-6.7c-3.8,0-7.4,1.2-10.9,3.6c-3.5,2.4-6.6,5.6-9.1,9.5
						c-2.6,3.9-4.4,8.1-5.7,12.6c-1.6,6.3-1.9,12.9-0.8,19.7c1.1,6.8,3.5,12.4,7.1,16.8c3.6,4.4,8.1,6.7,13.6,6.7
						C633.8,746.1,637.4,744.9,640.9,742.5z"/>
					<path class="st3" d="M677.5,746.7c-1.4-3.6-1.1-9.3,1.1-17.3l14.4-53.1h-7.5l0.3-2.1c9.6-3.7,17.4-10.5,23.3-20.5h2.4
						l-5.1,19.1h30.2l-0.5,3.5h-30.6l-15.5,57.3c-1.1,4.3-1.8,7.5-2.1,9.6c-0.3,2.1-0.2,3.6,0.2,4.4c0.4,0.8,1,1.1,2.1,1.1
						c2.1,0,5.2-1.6,9.3-4.9c4-3.3,8.6-7.9,13.7-13.8c0.7-0.9,1.6-1.4,2.6-1.5c1-0.1,1.8,0.3,2.5,1.1c0.6,0.8,0.8,1.7,0.6,2.8
						l-1.2,9.5c-4.6,2.8-9.7,5.1-15.4,7.1c-5.7,2-10.5,3-14.6,3C682.3,752.1,678.9,750.3,677.5,746.7z"/>
					<path class="st3" d="M733.1,750.5c-0.7-1.1-0.9-2.4-0.5-4.1l17-56.8c0.4-1.4,1-3,1.8-4.8c0.8-1.8,1.6-3.3,2.4-4.5l7,2.3
						c-11.5,3.6-21.3,7.8-29.4,12.7l-1.4-2.1l29.6-21c1.1-0.8,2.2-1.2,3.4-1.2c1.2,0,2.1,0.5,2.8,1.5c0.6,1,0.7,2.3,0.2,3.8
						L749,733.7c-0.5,1.5-1.1,3.1-1.9,4.8c-0.8,1.7-1.6,3.2-2.4,4.7l-7-2.3c11.5-3.6,21.3-7.9,29.2-12.9l1.5,2.3l-29.4,20.8
						c-0.9,0.6-1.8,0.9-2.8,0.9C734.9,752.1,733.8,751.6,733.1,750.5z M760,656.7c-1.1-1.7-1.3-3.6-0.7-5.5c0.4-1.7,1.4-3.1,3-4.1
						c1.6-1,3.4-1.5,5.4-1.5c2.5,0,4.3,0.8,5.4,2.5c1,1.7,1.3,3.5,0.8,5.6c-0.6,1.7-1.7,3.1-3.2,4.1c-1.5,1-3.3,1.5-5.2,1.5
						C762.9,659.3,761,658.4,760,656.7z"/>
					<path class="st3" d="M783.3,746.9c-4.1-3.5-6.8-8.2-7.9-14.2c-1.1-6-0.7-12.5,1.2-19.7c1.9-7.5,5.3-14.4,10-20.8
						c4.7-6.4,10.3-11.6,16.7-15.5c6.4-3.9,12.9-5.8,19.5-5.8c6.3,0,11.5,1.8,15.4,5.4c3.9,3.6,6.4,8.4,7.4,14.5
						c1,6.1,0.6,12.7-1.4,20c-2,7.8-5.4,14.8-10,21.1c-4.6,6.3-10,11.2-16.2,14.9c-6.1,3.6-12.4,5.4-18.8,5.4
						C792.7,752.1,787.4,750.4,783.3,746.9z M818.9,742.5c3.5-2.4,6.5-5.6,9-9.5c2.5-3.9,4.4-8.1,5.6-12.5c1.7-6.3,2-12.9,0.9-19.7
						c-1.1-6.8-3.5-12.4-7.2-16.9c-3.7-4.5-8.2-6.7-13.5-6.7c-3.8,0-7.4,1.2-10.9,3.6c-3.5,2.4-6.6,5.6-9.1,9.5
						c-2.6,3.9-4.4,8.1-5.7,12.6c-1.6,6.3-1.9,12.9-0.8,19.7c1.1,6.8,3.5,12.4,7.1,16.8c3.6,4.4,8.1,6.7,13.6,6.7
						C811.7,746.1,815.4,744.9,818.9,742.5z"/>
					<path class="st3" d="M904.9,750.5c-0.7-1.1-0.9-2.4-0.5-4.1l14.2-48.2c2-6.7,2.8-11.5,2.1-14.3c-0.6-2.8-2-4.2-4.1-4.2
						c-2.8,0-7.6,3.9-14.6,11.6c-7,7.7-16.2,20.5-27.5,38.5l-5.5,20.5h-12.6l16.2-60.6c0.5-1.5,1.1-3.2,1.8-5c0.7-1.8,1.4-3.2,2-4.4
						l7,2.3c-11.5,3.6-21.3,7.8-29.4,12.7l-1.4-2.1l29.6-21c1.1-0.8,2.2-1.2,3.4-1.2c1.2,0,2.1,0.5,2.8,1.5c0.6,1,0.7,2.4,0.3,4
						l-8.3,30.9c-1.3,5-3.2,10.6-5.5,16.8l-1.4,0.5c11.2-17.1,21.1-30.4,29.6-39.7c8.5-9.3,15.8-13.9,21.9-13.9c4,0,6.7,2.2,8,6.7
						c1.4,4.5,0.6,11.6-2.2,21.3l-10.3,34.6c-0.4,1.5-1,3.1-1.8,4.8c-0.8,1.7-1.6,3.2-2.3,4.7l-7-2.3c11.4-3.6,21.2-7.9,29.2-12.9
						l1.4,2.3l-29.2,20.8c-0.9,0.6-1.9,0.9-2.9,0.9C906.6,752.1,905.6,751.6,904.9,750.5z"/>
				</g>
			</g>
			<g>
				<g>
					<path class="st3" d="M426.1,825.3v-28h10c2.1,0,3.9,0.3,5.5,1c1.6,0.6,2.8,1.6,3.8,2.8c0.9,1.2,1.4,2.7,1.4,4.5
						c0,1.8-0.5,3.3-1.4,4.6c-0.9,1.3-2.2,2.3-3.8,3c-1.6,0.7-3.4,1-5.5,1h-4.9v11.1H426.1z M431.3,810.6h3.4c1.3,0,2.4-0.2,3.5-0.5
						c1-0.4,1.8-0.9,2.4-1.6c0.6-0.7,0.9-1.6,0.9-2.7c0-1.1-0.3-2-0.9-2.7c-0.6-0.7-1.4-1.2-2.4-1.6c-1-0.3-2.2-0.5-3.5-0.5h-3.4
						V810.6z"/>
					<path class="st3" d="M458.7,825.3v-28h5.1v28H458.7z"/>
					<path class="st3" d="M478.5,825.3v-28h5.1v24.1H496v3.9H478.5z"/>
					<path class="st3" d="M504.1,825.3l12.8-28h4.7l12.9,28H529l-3.2-7.3h-13.1l-3.2,7.3H504.1z M514.5,814.1h9.6l-4.8-10.8
						L514.5,814.1z"/>
					<path class="st3" d="M548.9,825.3v-24.1h-8.8v-4h22.7v4H554v24.1H548.9z"/>
					<path class="st3" d="M574,825.3v-28h17.3v3.9h-12.2v8.1h11.7v3.9h-11.7v8.2h12.2v3.9H574z"/>
					<path class="st3" d="M612.9,825.9c-1.6,0-3-0.2-4.2-0.5c-1.3-0.3-2.4-0.8-3.3-1.3c-1-0.5-1.8-1-2.4-1.5
						c-0.6-0.5-1.1-0.9-1.5-1.3l2.7-3.6c0.4,0.3,0.8,0.7,1.4,1.2c0.6,0.5,1.2,0.9,1.9,1.3c0.7,0.4,1.6,0.8,2.5,1.1
						c0.9,0.3,2,0.5,3.1,0.5c1.1,0,2-0.2,2.8-0.5c0.8-0.3,1.5-0.8,2-1.4c0.5-0.6,0.7-1.4,0.7-2.3c0-0.8-0.2-1.5-0.6-2
						s-0.9-1-1.6-1.5c-0.7-0.4-1.5-0.8-2.5-1.2c-1-0.4-2-0.8-3.2-1.2c-0.8-0.3-1.7-0.7-2.5-1.1c-0.8-0.4-1.5-0.9-2.2-1.5
						c-0.7-0.6-1.2-1.2-1.6-2c-0.4-0.7-0.6-1.6-0.6-2.6c0-1.1,0.2-2.1,0.7-3c0.5-1,1.1-1.8,2-2.6c0.9-0.7,1.9-1.3,3.1-1.8
						c1.2-0.4,2.6-0.6,4-0.6c1.2,0,2.4,0.2,3.5,0.5c1.1,0.3,2.2,0.7,3.1,1.2c0.9,0.5,1.7,1,2.3,1.5l-2.2,3.4
						c-0.5-0.4-1.1-0.9-1.8-1.2c-0.7-0.4-1.4-0.7-2.3-0.9c-0.8-0.2-1.7-0.4-2.6-0.4c-1.1,0-2,0.2-2.7,0.5c-0.7,0.4-1.3,0.8-1.7,1.4
						c-0.4,0.6-0.6,1.2-0.6,1.9c0,0.6,0.1,1.1,0.4,1.5c0.3,0.4,0.7,0.8,1.2,1.1c0.5,0.3,1.1,0.6,1.7,0.8c0.7,0.2,1.3,0.5,2.1,0.7
						c1.4,0.5,2.7,1,3.9,1.5c1.2,0.5,2.3,1.1,3.1,1.7c0.9,0.6,1.6,1.4,2.1,2.3c0.5,0.9,0.7,2,0.7,3.2c0,1.8-0.5,3.3-1.4,4.5
						c-1,1.2-2.3,2.2-4,2.8C617.1,825.6,615.1,825.9,612.9,825.9z"/>
				</g>
			</g>
		</g>
	</g>
</g>
</svg>
