<?xml version="1.0" encoding="utf-8"?>
<!-- Generator: Adobe Illustrator 28.0.0, SVG Export Plug-In . SVG Version: 6.00 Build 0)  -->
<svg version="1.1" id="Camada_1" xmlns="http://www.w3.org/2000/svg" xmlns:xlink="http://www.w3.org/1999/xlink" x="0px" y="0px"
	 viewBox="0 0 1080 1080" style="enable-background:new 0 0 1080 1080;" xml:space="preserve">
<style type="text/css">
	.st0{fill:#F6F3E5;}
	.st1{fill:#E6DFCC;}
	.st2{fill:#57433D;}
	.st3{fill:#908276;}
	.st4{fill:#FFFFFF;}
</style>
<rect x="-7.2" y="-3.6" class="st0" width="1087.2" height="1087.2"/>
<g>
	<g>
		<path class="st2" d="M794.4,747.6c4.9-240.8-285.1-360-453.8-189.9c-49.1,49.9-76.7,120.2-74,189.9c0,0-20.2,0-20.2,0
			c0.5-13,2.2-28.7,4.3-41.5c22.2-134.3,143.3-238,279.7-236.6c130.9-1.6,249.7,95.2,277.1,223c4,17.6,6.2,37.1,7,55.1
			C814.5,747.6,794.4,747.6,794.4,747.6L794.4,747.6z"/>
	</g>
	<g>
		<g>
			<path class="st2" d="M833.6,322.4c-78.5-1.8-212.8,162.4-267,220.6C506.3,610,448.7,680.4,378.5,737.5
				c-24.8,18.9-52.6,38.2-85.1,40.3c0,0,0-20.2,0-20.2c13.3,0.5,26.9-3.6,39.3-9.2c39.9-18.8,73.5-49,105.7-79.3
				c97.4-93.3,178.8-202.3,276.2-295.8c32.1-29.2,73.7-67.8,118.9-71.1C833.6,302.3,833.6,322.4,833.6,322.4L833.6,322.4z"/>
		</g>
	</g>
	<circle class="st2" cx="763.1" cy="449.7" r="34.1"/>
</g>
</svg>
